<mxfile host="app.diagrams.net" modified="2023-03-20T01:35:20.094Z" agent="5.0 (Windows NT 10.0; Win64; x64) AppleWebKit/537.36 (KHTML, like Gecko) Chrome/101.0.0.0 Safari/537.36" etag="vF5ejswVlAlaOhNViAi7" version="21.0.8" type="github">
  <diagram id="C5RBs43oDa-KdzZeNtuy" name="Page-1">
    <mxGraphModel dx="1434" dy="796" grid="1" gridSize="10" guides="1" tooltips="1" connect="1" arrows="1" fold="1" page="1" pageScale="1" pageWidth="827" pageHeight="1169" math="0" shadow="0">
      <root>
        <mxCell id="WIyWlLk6GJQsqaUBKTNV-0" />
        <mxCell id="WIyWlLk6GJQsqaUBKTNV-1" parent="WIyWlLk6GJQsqaUBKTNV-0" />
        <mxCell id="--nRkN5RSNNi_134uoBu-4" style="edgeStyle=orthogonalEdgeStyle;rounded=0;orthogonalLoop=1;jettySize=auto;html=1;" edge="1" parent="WIyWlLk6GJQsqaUBKTNV-1" source="--nRkN5RSNNi_134uoBu-0" target="--nRkN5RSNNi_134uoBu-1">
          <mxGeometry relative="1" as="geometry" />
        </mxCell>
        <mxCell id="--nRkN5RSNNi_134uoBu-0" value="开始" style="ellipse;whiteSpace=wrap;html=1;" vertex="1" parent="WIyWlLk6GJQsqaUBKTNV-1">
          <mxGeometry x="230" y="100" width="70" height="50" as="geometry" />
        </mxCell>
        <mxCell id="--nRkN5RSNNi_134uoBu-5" style="edgeStyle=orthogonalEdgeStyle;rounded=0;orthogonalLoop=1;jettySize=auto;html=1;entryX=0.5;entryY=0;entryDx=0;entryDy=0;" edge="1" parent="WIyWlLk6GJQsqaUBKTNV-1" source="--nRkN5RSNNi_134uoBu-1" target="--nRkN5RSNNi_134uoBu-2">
          <mxGeometry relative="1" as="geometry" />
        </mxCell>
        <mxCell id="--nRkN5RSNNi_134uoBu-1" value="遍历待入库订单列表" style="rounded=1;whiteSpace=wrap;html=1;" vertex="1" parent="WIyWlLk6GJQsqaUBKTNV-1">
          <mxGeometry x="212.5" y="180" width="105" height="40" as="geometry" />
        </mxCell>
        <mxCell id="--nRkN5RSNNi_134uoBu-6" style="edgeStyle=orthogonalEdgeStyle;rounded=0;orthogonalLoop=1;jettySize=auto;html=1;" edge="1" parent="WIyWlLk6GJQsqaUBKTNV-1" source="--nRkN5RSNNi_134uoBu-2" target="--nRkN5RSNNi_134uoBu-3">
          <mxGeometry relative="1" as="geometry" />
        </mxCell>
        <mxCell id="--nRkN5RSNNi_134uoBu-2" value="从redis获取并加1计数值" style="rounded=1;whiteSpace=wrap;html=1;" vertex="1" parent="WIyWlLk6GJQsqaUBKTNV-1">
          <mxGeometry x="212.5" y="270" width="105" height="40" as="geometry" />
        </mxCell>
        <mxCell id="--nRkN5RSNNi_134uoBu-8" style="edgeStyle=orthogonalEdgeStyle;rounded=0;orthogonalLoop=1;jettySize=auto;html=1;" edge="1" parent="WIyWlLk6GJQsqaUBKTNV-1" source="--nRkN5RSNNi_134uoBu-3" target="--nRkN5RSNNi_134uoBu-7">
          <mxGeometry relative="1" as="geometry" />
        </mxCell>
        <mxCell id="--nRkN5RSNNi_134uoBu-3" value="对20取模得到当前订单处于循环内的第几单" style="rounded=1;whiteSpace=wrap;html=1;" vertex="1" parent="WIyWlLk6GJQsqaUBKTNV-1">
          <mxGeometry x="196.25" y="360" width="137.5" height="40" as="geometry" />
        </mxCell>
        <mxCell id="--nRkN5RSNNi_134uoBu-11" style="edgeStyle=orthogonalEdgeStyle;rounded=0;orthogonalLoop=1;jettySize=auto;html=1;" edge="1" parent="WIyWlLk6GJQsqaUBKTNV-1" source="--nRkN5RSNNi_134uoBu-7" target="--nRkN5RSNNi_134uoBu-9">
          <mxGeometry relative="1" as="geometry" />
        </mxCell>
        <mxCell id="--nRkN5RSNNi_134uoBu-7" value="根据配置判断是否创建增量订单" style="rounded=1;whiteSpace=wrap;html=1;" vertex="1" parent="WIyWlLk6GJQsqaUBKTNV-1">
          <mxGeometry x="212.5" y="460" width="105" height="40" as="geometry" />
        </mxCell>
        <mxCell id="--nRkN5RSNNi_134uoBu-12" style="edgeStyle=orthogonalEdgeStyle;rounded=0;orthogonalLoop=1;jettySize=auto;html=1;" edge="1" parent="WIyWlLk6GJQsqaUBKTNV-1" source="--nRkN5RSNNi_134uoBu-9" target="--nRkN5RSNNi_134uoBu-10">
          <mxGeometry relative="1" as="geometry" />
        </mxCell>
        <mxCell id="--nRkN5RSNNi_134uoBu-9" value="订单入库" style="rounded=1;whiteSpace=wrap;html=1;" vertex="1" parent="WIyWlLk6GJQsqaUBKTNV-1">
          <mxGeometry x="212.5" y="550" width="105" height="40" as="geometry" />
        </mxCell>
        <mxCell id="--nRkN5RSNNi_134uoBu-10" value="结束" style="ellipse;whiteSpace=wrap;html=1;" vertex="1" parent="WIyWlLk6GJQsqaUBKTNV-1">
          <mxGeometry x="230" y="630" width="70" height="50" as="geometry" />
        </mxCell>
      </root>
    </mxGraphModel>
  </diagram>
</mxfile>
